<svg xmlns="http://www.w3.org/2000/svg" width="100%" height="100%" viewBox="0 0 46.108 38.749" fit="" preserveAspectRatio="xMidYMid meet" focusable="false">
  <g data-name="Group 14157" transform="translate(-925.826 -450.771)">
    <path data-name="Subtraction 74" d="M24.176 1.38a5.424 5.424 0 0 1 4.608 2.54l17.6 27.845a5.443 5.443 0 0 1-4.609 8.364H6.58a5.443 5.443 0 0 1-4.609-8.364L19.567 3.92a5.424 5.424 0 0 1 4.609-2.54zm17.6 35.879a2.582 2.582 0 0 0 2.179-3.959L26.359 5.452a2.582 2.582 0 0 0-4.366 0L4.4 33.3a2.582 2.582 0 0 0 2.18 3.96z" transform="translate(924.704 449.391)" style="fill:#FF0000"></path>
    <rect data-name="Rectangle 12624" width="3.443" height="14.92" rx="1.722" transform="translate(947.158 460.658)" style="fill:#FF0000"></rect>
    <rect data-name="Rectangle 12625" width="3.443" height="3.443" rx="1.722" transform="translate(947.158 479.021)" style="fill:#FF0000"></rect>
  </g>
</svg>
